<?xml version="1.0" encoding="utf-8"?>
<!-- Generator: Adobe Illustrator 25.2.1, SVG Export Plug-In . SVG Version: 6.00 Build 0)  -->
<svg version="1.1" id="Layer_1" xmlns="http://www.w3.org/2000/svg" xmlns:xlink="http://www.w3.org/1999/xlink" x="0px" y="0px" viewBox="0 0 40 40" style="enable-background: new 0 0 40 40" xml:space="preserve">
<style>.st0 {
  fill: url("#SVGID_1_");
}

.st1 {
  opacity: .9;
  fill: #fff;
  enable-background: new;
}

.st2 {
  opacity: .5;
  fill: #fff;
  enable-background: new;
}
</style>
<linearGradient id="SVGID_1_" gradientUnits="userSpaceOnUse" x1="8.61" y1="1958.61" x2="40.62" y2="1990.62" gradientTransform="matrix(1 0 0 1 -4 -1954)">
	<stop offset="0" style="stop-color: #3fd6ff"></stop>
	<stop offset="0.17" style="stop-color: #50b5ff"></stop>
	<stop offset="0.43" style="stop-color: #658cff"></stop>
	<stop offset="0.66" style="stop-color: #756eff"></stop>
	<stop offset="0.86" style="stop-color: #7f5cff"></stop>
	<stop offset="1" style="stop-color: #8255ff"></stop>
</linearGradient>
<path class="st0" d="M10,0h20c5.5,0,10,4.5,10,10v20c0,5.5-4.5,10-10,10H10C4.5,40,0,35.5,0,30V10C0,4.5,4.5,0,10,0z"></path>
<path class="st1" d="M15.3,30h9.5c0.4,0,0.7-0.6,0.7-1.4v-4.1c0-3-1.2-5.4-2.7-5.4h-5.4c-1.5,0-2.7,2.4-2.7,5.4v4.1
	C14.6,29.4,14.9,30,15.3,30z"></path>
<circle class="st1" cx="20" cy="13" r="3"></circle>
<path class="st2" d="M13.1,28.7c0,0.5,0.1,1,0.2,1.3H8.5C8.2,30,8,29.5,8,28.9v-3.3c0-2.5,1-4.4,2.2-4.4h3.5c-0.3,1-0.5,2.2-0.5,3.4
	V28.7z"></path>
<circle class="st2" cx="12.4" cy="16.1" r="2.4"></circle>
<path class="st2" d="M32,25.6v3.3c0,0.6-0.2,1.1-0.5,1.1h-4.8c0.2-0.4,0.2-0.8,0.2-1.3v-4.1c0-1.3-0.2-2.4-0.5-3.4h3.5
	C31.1,21.2,32,23.1,32,25.6z"></path>
<circle class="st2" cx="27.6" cy="16.1" r="2.4"></circle>
</svg>
