<svg id="a" xmlns="http://www.w3.org/2000/svg" width="48" height="48"><defs><linearGradient id="b" x1="8.61" y1="41.39" x2="40.62" y2="9.38" gradientTransform="matrix(1 0 0 -1 0 50)" gradientUnits="userSpaceOnUse"><stop offset="0" stop-color="#5eead4"/><stop offset="1" stop-color="#0ea5e9"/></linearGradient></defs><rect x="4" y="4" width="40" height="40" rx="10" ry="10" fill="url('#b')"/><path d="M27.5 23h3c.55 0 1.059.156 1.5.417V16a2 2 0 0 0-2-2H16a2 2 0 0 0-2 2v10a2 2 0 0 0 2 2h6a2.994 2.994 0 0 1 2.674-2.967A2.994 2.994 0 0 1 27.5 23Zm-4.5-.19c-.416 0-.831-.085-1.218-.257L16 19.983v-2.188l6.594 2.93c.258.115.554.114.813 0L30 17.795v2.188l-5.781 2.57A3.007 3.007 0 0 1 23 22.81Z" fill="#fff" opacity=".5"/><path d="M33 27h-1v-1c0-.827-.673-1.5-1.5-1.5h-3c-.827 0-1.5.673-1.5 1.5v1h-1a1 1 0 0 0-1 1v5a1 1 0 0 0 1 1h8a1 1 0 0 0 1-1v-5a1 1 0 0 0-1-1Zm-2 0h-4v-1c0-.275.225-.5.5-.5h3c.275 0 .5.225.5.5v1Z" fill="#fff"/></svg>