<?xml version="1.0" encoding="UTF-8"?><svg id="a" xmlns="http://www.w3.org/2000/svg" width="128" height="128" xmlns:xlink="http://www.w3.org/1999/xlink" viewBox="0 0 128 128"><defs><linearGradient id="b" x1="14.75" y1="14.75" x2="117.1806" y2="117.1806" gradientUnits="userSpaceOnUse"><stop offset="0" stop-color="#8cc63f"/><stop offset=".2175" stop-color="#60bc44"/><stop offset=".4593" stop-color="#36b249"/><stop offset=".679" stop-color="#18ab4d"/><stop offset=".8666" stop-color="#06a750"/><stop offset="1" stop-color="#00a651"/></linearGradient></defs><rect width="128" height="128" rx="32" ry="32" fill="url(#b)"/><path d="M49.5031,46.6969c-.9375-.9375-.9375-2.4563,0-3.3938,.9375-.9374,2.4563-.9374,3.3938,0l8.7031,8.7032v-19.8063c0-1.325,1.075-2.4,2.4-2.4s2.4,1.075,2.4,2.4v19.8063l8.7031-8.7032c.9375-.9374,2.4563-.9374,3.3938,0,.9375,.9375,.9375,2.4563,0,3.3938l-12.8,12.8c-.4688,.4687-1.0813,.7031-1.6969,.7031s-1.2281-.2344-1.6969-.7031l-12.8-12.8Z" fill="#fff"/><path d="M89.6,51.4h-5.2365c-1.6975,0-3.3252,.6742-4.5256,1.8744l-10.1817,10.1819c-3.1238,3.1238-8.1887,3.1238-11.3124,0l-10.1817-10.1819c-1.2004-1.2002-2.8281-1.8744-4.5256-1.8744h-5.2365c-3.5346,0-6.4,2.8652-6.4,6.4v32c0,3.5346,2.8654,6.4,6.4,6.4h51.1999c3.5346,0,6.4-2.8655,6.4-6.4V57.8c0-3.5347-2.8654-6.4-6.4-6.4Zm-41.6,24.8h-6.4c-1.3251,0-2.4-1.0751-2.4-2.4s1.075-2.4,2.4-2.4h6.4c1.325,0,2.4,1.075,2.4,2.4s-1.075,2.4-2.4,2.4Zm16,4c-3.5346,0-6.4-2.8652-6.4-6.4s2.8655-6.4,6.4-6.4,6.4,2.8654,6.4,6.4-2.8655,6.4-6.4,6.4Zm22.4-4h-6.4c-1.325,0-2.4-1.0751-2.4-2.4s1.075-2.4,2.4-2.4h6.4c1.3251,0,2.4,1.075,2.4,2.4s-1.075,2.4-2.4,2.4Z" fill="#fff" opacity=".5"/></svg>