<?xml version="1.0" encoding="utf-8"?>
<!-- Generator: Adobe Illustrator 26.5.0, SVG Export Plug-In . SVG Version: 6.00 Build 0)  -->
<svg version="1.1" id="Layer_1" xmlns="http://www.w3.org/2000/svg" xmlns:xlink="http://www.w3.org/1999/xlink" x="0px" y="0px"
	 viewBox="0 0 48 48" style="enable-background:new 0 0 48 48;" xml:space="preserve">
<style type="text/css">
	.st0{fill:#7C69EF;}
	.st1{opacity:0.9;fill:#FFFFFF;enable-background:new    ;}
</style>
<g id="Layer_1_00000080925717069164863580000008493975670469975482_">
	<path class="st0" d="M14,4h20c5.5,0,10,4.5,10,10v20c0,5.5-4.5,10-10,10H14C8.5,44,4,39.5,4,34V14C4,8.5,8.5,4,14,4z"/>
	<path class="st1" d="M14,23.1V31c0,0.6,0.4,1,1,1h18c0.6,0,1-0.4,1-1v-7.9l-10,4L14,23.1z"/>
	<path class="st1" d="M34,17v4l-10,4l-10-4v-4c0-0.6,0.4-1,1-1h18C33.6,16,34,16.4,34,17z"/>
</g>
<g id="OaNlpE_00000066511457762473601940000017959200736345903257_">
	
		<image style="overflow:visible;" width="262" height="280" id="OaNlpE_00000054264503675944592110000001369119952404867769_" xlink:href="DB36239CE03AFD3C.png"  transform="matrix(0.5 0 0 0.5 72.7719 -26)">
	</image>
</g>
</svg>
