<?xml version="1.0" encoding="utf-8"?>
<!-- Generator: Adobe Illustrator 26.5.0, SVG Export Plug-In . SVG Version: 6.00 Build 0)  -->
<svg version="1.1" id="Layer_1" xmlns="http://www.w3.org/2000/svg" xmlns:xlink="http://www.w3.org/1999/xlink" x="0px" y="0px"
	 viewBox="0 0 48 48" style="enable-background:new 0 0 48 48;" xml:space="preserve">
<style type="text/css">
	.st0{fill:#7C69EF;}
	.st1{opacity:0.9;enable-background:new    ;}
	.st2{fill:#FFFFFF;}
</style>
<g id="Layer_1_00000080925717069164863580000008493975670469975482_">
	<path class="st0" d="M14,4h20c5.5,0,10,4.5,10,10v20c0,5.5-4.5,10-10,10H14C8.5,44,4,39.5,4,34V14C4,8.5,8.5,4,14,4z"/>
</g>
<g id="OaNlpE_00000066511457762473601940000017959200736345903257_">
	
		<image style="overflow:visible;" width="262" height="280" id="OaNlpE_00000054264503675944592110000001369119952404867769_" xlink:href="70A0D7EB5C348EF5.png"  transform="matrix(0.5 0 0 0.5 72.7719 -26)">
	</image>
</g>
<g class="st1">
	<path class="st2" d="M15.7,23.4c-1.6,1.6-1.1,4.2,0.9,5.2c1.6,0.7,3.5,0,4.2-1.6h2.5c-1.6,6.4-11,5.3-11-1.3s9.4-7.7,11-1.3h-2.5
		C19.9,22.3,17.2,21.8,15.7,23.4z"/>
	<path class="st2" d="M30.1,20.1h-0.4c-1,0.1-1.9,0.4-2.7,1v-6.2h-2.3v16H27v-0.6c1.5,1,3.4,1.2,5.1,0.6c0.6-0.2,1.1-0.5,1.6-1
		C37.6,26.5,35.3,20.1,30.1,20.1z M30.2,28.9c-1.8,0-3.2-1.5-3.2-3.3c0.1-4.1,6.3-4.1,6.4,0C33.4,27.5,32,28.9,30.2,28.9z"/>
</g>
</svg>
