<?xml version="1.0" encoding="UTF-8"?><svg id="a" xmlns="http://www.w3.org/2000/svg" width="128" height="128" xmlns:xlink="http://www.w3.org/1999/xlink" viewBox="0 0 128 128"><defs><linearGradient id="b" x1="14.75" y1="14.75" x2="117.1806" y2="117.1806" gradientUnits="userSpaceOnUse"><stop offset="0" stop-color="#f9d53d"/><stop offset=".2336" stop-color="#fab936"/><stop offset=".5439" stop-color="#fd9b2f"/><stop offset=".8104" stop-color="#fe892b"/><stop offset="1" stop-color="#ff832a"/></linearGradient></defs><rect width="128" height="128" rx="32" ry="32" fill="url(#b)"/><path d="M93.5385,31.9987H34.4615c-1.359,0-2.4615,1.1026-2.4615,2.4615s1.1025,2.4615,2.4615,2.4615h3.282v30.359c0,3.6252,2.9389,6.5641,6.5641,6.5641h39.3846c3.6252,0,6.5641-2.9389,6.5641-6.5641v-30.359h3.282c1.359,0,2.4615-1.1025,2.4615-2.4615s-1.1025-2.4615-2.4615-2.4615Zm-31.1795,19.6923h3.2821c4.0705,0,7.3846,3.3125,7.3846,7.3846,0,3.7911-2.883,6.8874-6.5641,7.3017v.9034c0,1.3589-1.1026,2.4615-2.4615,2.4615s-2.4615-1.1025-2.4615-2.4615v-.8206h-4.1025c-1.359,0-2.4615-1.1025-2.4615-2.4615s1.1025-2.4615,2.4615-2.4615h8.2051c1.3557,0,2.4615-1.1042,2.4615-2.4615s-1.1058-2.4615-2.4615-2.4615h-3.2821c-4.0705,0-7.3846-3.3125-7.3846-7.3846,0-3.791,2.883-6.8874,6.5641-7.3016v-.9034c0-1.359,1.1026-2.4615,2.4615-2.4615s2.4615,1.1025,2.4615,2.4615v.8205h4.1025c1.359,0,2.4615,1.1025,2.4615,2.4615s-1.1025,2.4615-2.4615,2.4615h-8.2051c-1.3557,0-2.4615,1.1041-2.4615,2.4615s1.1058,2.4615,2.4615,2.4615Z" fill="#fff"/><path d="M81.3237,91.2519l-14.8622-5.9449v-6.5391h-4.9231v6.5391l-14.8622,5.9449c-1.2628,.5048-1.8782,1.9375-1.3718,3.1987,.5064,1.2644,1.9423,1.8814,3.1987,1.3718l15.4968-6.1987,15.4968,6.1987c.2981,.1202,.609,.1763,.9135,.1763,.9775,0,1.9006-.5849,2.2852-1.548,.5064-1.2612-.1089-2.6939-1.3718-3.1987Z" fill="#fff" opacity=".5"/></svg>