<?xml version="1.0" encoding="UTF-8"?><svg id="a" xmlns="http://www.w3.org/2000/svg" width="128" height="128" xmlns:xlink="http://www.w3.org/1999/xlink" viewBox="0 0 128 128"><defs><linearGradient id="b" x1="14.75" y1="14.75" x2="117.1806" y2="117.1806" gradientUnits="userSpaceOnUse"><stop offset="0" stop-color="#9b8dff"/><stop offset=".2515" stop-color="#7c78fc"/><stop offset=".5546" stop-color="#5e64fa"/><stop offset=".8148" stop-color="#4c58f9"/><stop offset="1" stop-color="#4654f9"/></linearGradient></defs><rect width="128" height="128" rx="32" ry="32" fill="url(#b)"/><path d="M96,38.4v12.8c0,3.5345-2.8654,6.4-6.4,6.4h-12.8c-3.5345,0-6.4-2.8654-6.4-6.4v-12.8c0-3.5347,2.8654-6.4,6.4-6.4h12.8c3.5346,0,6.4,2.8652,6.4,6.4Zm-49.6,28.8c-7.9529,0-14.4,6.447-14.4,14.4s6.4471,14.4,14.4,14.4,14.4-6.4471,14.4-14.4-6.4471-14.4-14.4-14.4Z" fill="#fff"/><path d="M33.9121,36.2274c-.9709-1.9422,.441-4.2274,2.6119-4.2274h19.752c2.1709,0,3.5828,2.2852,2.6119,4.2274l-9.876,19.7578c-1.0762,2.1531-4.1476,2.1531-5.2238,0l-9.876-19.7578Zm51.8998,34.1873c-1.0762-2.1529-4.1476-2.1529-5.2238,0l-9.876,19.7578c-.9709,1.9422,.441,4.2275,2.6119,4.2275h19.752c2.1709,0,3.5828-2.2853,2.6119-4.2275l-9.876-19.7578Z" fill="#fff" opacity=".5"/></svg>