<?xml version="1.0" encoding="UTF-8"?><svg id="a" xmlns="http://www.w3.org/2000/svg" width="128" height="128" xmlns:xlink="http://www.w3.org/1999/xlink" viewBox="0 0 128 128"><defs><linearGradient id="b" x1="14.75" y1="14.75" x2="117.1806" y2="117.1806" gradientUnits="userSpaceOnUse"><stop offset="0" stop-color="#ff9f69"/><stop offset=".2886" stop-color="#ff795f"/><stop offset=".5771" stop-color="#ff5b57"/><stop offset=".8242" stop-color="#ff4952"/><stop offset="1" stop-color="#ff4351"/></linearGradient></defs><rect width="128" height="128" rx="32" ry="32" fill="url(#b)"/><path d="M75.2,50c0-5.3329-2.1475-10.1702-5.6157-13.7078,.9104-.186,1.8503-.2922,2.8157-.2922,7.732,0,14,6.268,14,14s-6.268,14-14,14c-.9654,0-1.9051-.1063-2.8156-.2924,3.4681-3.5376,5.6156-8.3747,5.6156-13.7076Zm5.6,25.2h-4.3133c2.672,2.9759,4.3133,6.8949,4.3133,11.2v5.6h8.4c1.5465,0,2.8-1.2537,2.8-2.8v-2.8c0-6.1857-5.0143-11.2-11.2-11.2Z" fill="#fff" opacity=".5"/><path d="M41.6,50c0-7.732,6.268-14,14-14s14,6.268,14,14-6.2681,14-14,14-14-6.2681-14-14Zm22.4,25.2h-16.8c-6.1857,0-11.2,5.0143-11.2,11.2v2.8c0,1.5463,1.2535,2.8,2.8,2.8h33.6c1.5465,0,2.8-1.2537,2.8-2.8v-2.8c0-6.1857-5.0143-11.2-11.2-11.2Z" fill="#fff"/></svg>