<?xml version="1.0" encoding="UTF-8"?><svg id="a" xmlns="http://www.w3.org/2000/svg" width="128" height="128" xmlns:xlink="http://www.w3.org/1999/xlink" viewBox="0 0 128 128"><defs><linearGradient id="b" x1="14.75" y1="14.75" x2="117.1806" y2="117.1806" gradientUnits="userSpaceOnUse"><stop offset="0" stop-color="#15c7ff"/><stop offset=".1248" stop-color="#11bafa"/><stop offset=".4793" stop-color="#079cf1"/><stop offset=".7835" stop-color="#028aeb"/><stop offset="1" stop-color="#0084e9"/></linearGradient></defs><rect width="128" height="128" rx="32" ry="32" fill="url(#b)"/><path d="M61.5385,41.0256c0-1.359,1.1026-2.4615,2.4615-2.4615h29.5385c1.359,0,2.4615,1.1026,2.4615,2.4615s-1.1026,2.4615-2.4615,2.4615h-29.5385c-1.359,0-2.4615-1.1026-2.4615-2.4615Zm32,43.4872h-29.5385c-1.359,0-2.4615,1.1026-2.4615,2.4615s1.1026,2.4615,2.4615,2.4615h29.5385c1.359,0,2.4615-1.1026,2.4615-2.4615s-1.1026-2.4615-2.4615-2.4615Zm0-22.9744h-29.5385c-1.359,0-2.4615,1.1026-2.4615,2.4615s1.1026,2.4615,2.4615,2.4615h29.5385c1.359,0,2.4615-1.1026,2.4615-2.4615s-1.1026-2.4615-2.4615-2.4615Z" fill="#fff" opacity=".5"/><path d="M55.8942,78.6699c.9615,.9615,.9615,2.5192,0,3.4808l-13.1282,13.1282c-.4808,.4808-1.1106,.7212-1.7404,.7212s-1.2596-.2404-1.7404-.7212l-6.5641-6.5641c-.9615-.9615-.9615-2.5192,0-3.4808s2.5192-.9615,3.4808,0l4.8237,4.8237,11.3878-11.3878c.9615-.9615,2.5192-.9615,3.4808,0Zm-3.4808-22.9744l-11.3878,11.3878-4.8237-4.8237c-.9615-.9615-2.5192-.9615-3.4808,0s-.9615,2.5192,0,3.4808l6.5641,6.5641c.4808,.4808,1.1106,.7212,1.7404,.7212s1.2596-.2404,1.7404-.7212l13.1282-13.1282c.9615-.9615,.9615-2.5192,0-3.4808s-2.5192-.9615-3.4808,0Zm0-22.9744l-11.3878,11.3878-4.8237-4.8237c-.9615-.9615-2.5192-.9615-3.4808,0s-.9615,2.5192,0,3.4808l6.5641,6.5641c.4808,.4808,1.1106,.7212,1.7404,.7212s1.2596-.2404,1.7404-.7212l13.1282-13.1282c.9615-.9615,.9615-2.5192,0-3.4808s-2.5192-.9615-3.4808,0Z" fill="#fff"/></svg>