<?xml version="1.0" encoding="UTF-8"?>
<svg width="100px" height="100px" viewBox="0 0 100 100" version="1.1" xmlns="http://www.w3.org/2000/svg" xmlns:xlink="http://www.w3.org/1999/xlink">
    <!-- Generator: Sketch 52.5 (67469) - http://www.bohemiancoding.com/sketch -->
    <title>Group 23</title>
    <desc>Created with Sketch.</desc>
    <g id="Welcome" stroke="none" stroke-width="1" fill="none" fill-rule="evenodd">
        <g id="Group-23">
            <path d="M100,50 C100,77.6141667 77.6141667,100 50,100 C22.3858333,100 0,77.6141667 0,50 C0,22.3858333 22.3858333,0 50,0 C77.6141667,0 100,22.3858333 100,50" id="Fill-1" fill="#0EE09A" opacity="0.118257068"></path>
            <rect id="Rectangle" stroke="#0EE09A" fill-rule="nonzero" x="14.5" y="54.5" width="71" height="11" rx="5.5"></rect>
            <rect id="Rectangle" fill="#0EE09A" fill-rule="nonzero" x="17" y="57" width="66" height="6" rx="3"></rect>
            <path d="M32.8081081,33.5423423 L32.8081081,46.4576577 L29.7243243,46.4576577 L29.7243243,37.2441441 L29.6045045,37.2441441 C29.4951946,37.391292 29.3270282,37.5394887 29.1,37.6887387 C28.8729718,37.8379887 28.5839357,37.9609605 28.2328829,38.0576577 C27.8818301,38.1543548 27.4708732,38.2027027 27,38.2027027 L27,35.7432432 C27.3867887,35.7432432 27.7462446,35.6770277 28.0783784,35.5445946 C28.4105122,35.4121615 28.6995483,35.2376888 28.9454955,35.0211712 C29.1914427,34.8046536 29.3837831,34.5671184 29.5225225,34.3085586 C29.661262,34.0499987 29.7327327,33.7945959 29.7369369,33.5423423 L32.8081081,33.5423423 Z M41.006294,46.772973 C39.8795616,46.772973 38.9084002,46.5049576 38.0927805,45.9689189 C37.2771608,45.4328802 36.6486385,44.6614164 36.2071949,43.6545045 C35.7657512,42.6475926 35.5471348,41.4357428 35.551339,40.0189189 C35.5555433,38.602095 35.7773128,37.3986536 36.2166543,36.4085586 C36.6559959,35.4184635 37.282416,34.6638164 38.0959336,34.1445946 C38.9094512,33.6253728 39.8795616,33.3657658 41.006294,33.3657658 C42.1330263,33.3657658 43.1052388,33.6253728 43.9229607,34.1445946 C44.7406825,34.6638164 45.3702557,35.4195146 45.8116994,36.4117117 C46.253143,37.4039089 46.4717595,38.6062992 46.4675553,40.0189189 C46.4675553,41.439947 46.2468367,42.6549499 45.8053931,43.663964 C45.3639494,44.672978 44.7364782,45.4433907 43.9229607,45.9752252 C43.1094431,46.5070597 42.1372306,46.772973 41.006294,46.772973 Z M41.006294,44.2189189 C41.67897,44.2189189 42.223409,43.8752287 42.6396273,43.1878378 C43.0558456,42.500447 43.2618496,41.4441513 43.2576453,40.0189189 C43.2534411,38.6231161 43.0453351,37.5878412 42.633321,36.9130631 C42.2213069,36.2382849 41.67897,35.9009009 41.006294,35.9009009 C40.3378222,35.9009009 39.7975873,36.2382849 39.3855733,36.9130631 C38.9735592,37.5878412 38.7654532,38.6231161 38.7612489,40.0189189 C38.7570447,41.4441513 38.9630487,42.500447 39.379267,43.1878378 C39.7954853,43.8752287 40.3378222,44.2189189 41.006294,44.2189189 Z M53.5987036,46.772973 C52.4719713,46.772973 51.5008098,46.5049576 50.6851901,45.9689189 C49.8695704,45.4328802 49.2410482,44.6614164 48.7996045,43.6545045 C48.3581609,42.6475926 48.1395445,41.4357428 48.1437487,40.0189189 C48.1479529,38.602095 48.3697225,37.3986536 48.809064,36.4085586 C49.2484055,35.4184635 49.8748257,34.6638164 50.6883433,34.1445946 C51.5018609,33.6253728 52.4719713,33.3657658 53.5987036,33.3657658 C54.725436,33.3657658 55.6976485,33.6253728 56.5153703,34.1445946 C57.3330921,34.6638164 57.9626654,35.4195146 58.404109,36.4117117 C58.8455527,37.4039089 59.0641691,38.6062992 59.0599649,40.0189189 C59.0599649,41.439947 58.8392464,42.6549499 58.3978027,43.663964 C57.9563591,44.672978 57.3288879,45.4433907 56.5153703,45.9752252 C55.7018527,46.5070597 54.7296402,46.772973 53.5987036,46.772973 Z M53.5987036,44.2189189 C54.2713797,44.2189189 54.8158187,43.8752287 55.232037,43.1878378 C55.6482553,42.500447 55.8542592,41.4441513 55.850055,40.0189189 C55.8458508,38.6231161 55.6377447,37.5878412 55.2257307,36.9130631 C54.8137166,36.2382849 54.2713797,35.9009009 53.5987036,35.9009009 C52.9302318,35.9009009 52.389997,36.2382849 51.9779829,36.9130631 C51.5659688,37.5878412 51.3578628,38.6231161 51.3536586,40.0189189 C51.3494544,41.4441513 51.5554583,42.500447 51.9716766,43.1878378 C52.3878949,43.8752287 52.9302318,44.2189189 53.5987036,44.2189189 Z M68.0830052,44.036036 L68.0830052,43.354955 C68.0830052,42.8252226 68.1975686,42.3354377 68.4266989,41.8855856 C68.6558291,41.4357335 68.989009,41.0741755 69.4262484,40.8009009 C69.8634878,40.5276263 70.3974164,40.390991 71.0280502,40.390991 C71.6712967,40.390991 72.2136336,40.5265752 72.6550772,40.7977477 C73.0965209,41.0689203 73.4297007,41.4283761 73.6546268,41.8761261 C73.8795528,42.3238761 73.9899121,42.8168141 73.9857079,43.354955 L73.9857079,44.036036 C73.9899121,44.5657684 73.8785018,45.0555533 73.6514736,45.5054054 C73.4244455,45.9552575 73.0891635,46.3168155 72.6456178,46.5900901 C72.202072,46.8633647 71.6628882,47 71.0280502,47 C70.389008,47 69.8519263,46.8633647 69.416789,46.5900901 C68.9816516,46.3168155 68.6505739,45.9552575 68.4235457,45.5054054 C68.1965176,45.0555533 68.0830052,44.5657684 68.0830052,44.036036 Z M70.0947169,43.354955 L70.0947169,44.036036 C70.0989211,44.3051065 70.1661877,44.5636624 70.2965187,44.8117117 C70.4268497,45.059761 70.6706911,45.1837838 71.0280502,45.1837838 C71.3938178,45.1837838 71.6418634,45.0629141 71.7721944,44.8211712 C71.9025253,44.5794282 71.9634857,44.3177191 71.9550772,44.036036 L71.9550772,43.354955 C71.9634857,43.0732719 71.9056785,42.8073586 71.7816538,42.5572072 C71.6576292,42.3070558 71.4064305,42.181982 71.0280502,42.181982 C70.6748953,42.181982 70.4321049,42.3070558 70.2996718,42.5572072 C70.1672387,42.8073586 70.0989211,43.0732719 70.0947169,43.354955 Z M61.3857079,36.645045 L61.3857079,35.963964 C61.3899121,35.4258231 61.5076286,34.9328851 61.738861,34.4851351 C61.9700934,34.0373851 62.3043243,33.6779293 62.7415637,33.4067568 C63.1788032,33.1355842 63.7085276,33 64.3307529,33 C64.9739994,33 65.5163363,33.1355842 65.9577799,33.4067568 C66.3992236,33.6779293 66.7334545,34.0373851 66.9604827,34.4851351 C67.1875108,34.9328851 67.2989211,35.4258231 67.2947169,35.963964 L67.2947169,36.645045 C67.2989211,37.1831859 67.1864598,37.6750728 66.9573295,38.1207207 C66.7281992,38.5663686 66.3918662,38.9216203 65.9483205,39.1864865 C65.5047747,39.4513527 64.9655909,39.5837838 64.3307529,39.5837838 C63.6959149,39.5837838 63.1598842,39.4492506 62.7226448,39.1801802 C62.2854054,38.9111098 61.9543276,38.553756 61.7294016,38.1081081 C61.5044755,37.6624602 61.3899121,37.1747774 61.3857079,36.645045 Z M63.4163385,35.963964 L63.4163385,36.645045 C63.424747,36.9267281 63.4930646,37.1884372 63.6212935,37.4301802 C63.7495223,37.6719231 63.9860065,37.7927928 64.3307529,37.7927928 C64.7007247,37.7927928 64.9498213,37.6719231 65.0780502,37.4301802 C65.2062791,37.1884372 65.2661884,36.9267281 65.2577799,36.645045 L65.2577799,35.963964 C65.2661884,35.6822809 65.2094322,35.4163676 65.0875097,35.1662162 C64.9655871,34.9160648 64.7133374,34.790991 64.3307529,34.790991 C63.977598,34.790991 63.7390118,34.9192179 63.6149872,35.1756757 C63.4909625,35.4321334 63.424747,35.6948935 63.4163385,35.963964 Z M62.04787,46.4576577 L70.9271493,33.5423423 L72.6487709,33.5423423 L63.7694917,46.4576577 L62.04787,46.4576577 Z" id="100%" fill="#0EE09A"></path>
        </g>
    </g>
</svg>