<?xml version="1.0" encoding="UTF-8"?>
<svg width="100px" height="100px" viewBox="0 0 100 100" version="1.1" xmlns="http://www.w3.org/2000/svg" xmlns:xlink="http://www.w3.org/1999/xlink">
    <!-- Generator: Sketch 52.5 (67469) - http://www.bohemiancoding.com/sketch -->
    <title>Group 18 Copy</title>
    <desc>Created with Sketch.</desc>
    <g id="Welcome" stroke="none" stroke-width="1" fill="none" fill-rule="evenodd">
        <g id="Group-18-Copy">
            <path d="M100,50 C100,77.6141667 77.6141667,100 50,100 C22.3858333,100 0,77.6141667 0,50 C0,22.3858333 22.3858333,0 50,0 C77.6141667,0 100,22.3858333 100,50" id="Fill-1" fill="#0EE09A" opacity="0.118257068"></path>
            <polygon id="Path" fill="#0EE09A" points="26.5306122 73.7789116 73.7789116 73.7789116 73.7789116 26.5306122 26.5306122 26.5306122"></polygon>
            <path d="M38.9585034,66.0272109 C39.4911565,67.1346939 40.2911565,68.0884354 41.3571429,68.8877551 C42.4231293,69.6877551 43.8380952,70.0877551 45.6020408,70.0877551 C47.5714286,70.0877551 49.170068,69.5442177 50.4013605,68.4571429 C51.6319728,67.370068 52.2469388,65.6789116 52.2469388,63.3816327 L52.2469388,48.247619 L47.8170068,48.247619 L47.8170068,63.3204082 C47.8170068,64.4278912 47.6020408,65.1761905 47.1714286,65.5659864 C46.7401361,65.955102 46.1564626,66.1503401 45.4176871,66.1503401 C44.6795918,66.1503401 44.1054422,65.9244898 43.6952381,65.4734694 C43.285034,65.022449 42.9156463,64.4891156 42.5877551,63.8741497 L38.9585034,66.0272109 Z" id="Path" fill="#FFFFFF"></path>
            <path d="M54.6455782,65.5353741 C55.3020408,66.847619 56.2965986,67.9346939 57.629932,68.7959184 C58.962585,69.6571429 60.6748299,70.0877551 62.7673469,70.0877551 C64.8585034,70.0877551 66.6013605,69.5544218 67.9959184,68.4877551 C69.3904762,67.4217687 70.0877551,65.8836735 70.0877551,63.8741497 C70.0877551,62.0278912 69.5748299,60.6129252 68.5503401,59.6292517 C67.5244898,58.644898 66.0687075,57.7421769 64.1823129,56.922449 L63.0748299,56.429932 C62.1312925,56.0197279 61.4442177,55.6401361 61.0136054,55.2918367 C60.5829932,54.9428571 60.3673469,54.4408163 60.3673469,53.7843537 C60.3673469,53.2510204 60.552381,52.8 60.9210884,52.4306122 C61.2904762,52.0619048 61.8034014,51.877551 62.4598639,51.877551 C63.114966,51.877551 63.6693878,52.0204082 64.1204082,52.3081633 C64.5714286,52.5952381 64.9816327,53.0870748 65.3510204,53.7843537 L68.7959184,51.5081633 C68.0578231,50.2367347 67.1755102,49.3340136 66.1503401,48.8013605 C65.1251701,48.2680272 63.8945578,48.0013605 62.4598639,48.0013605 C60.4904762,48.0013605 58.9217687,48.555102 57.7530612,49.662585 C56.5843537,50.770068 55.9993197,52.1639456 55.9993197,53.8462585 C55.9993197,55.6503401 56.4809524,57.044898 57.444898,58.0292517 C58.4088435,59.0136054 59.6904762,59.8544218 61.2904762,60.5517007 L62.3979592,61.0442177 C63.4231293,61.4544218 64.222449,61.8544218 64.7972789,62.2435374 C65.3714286,62.6333333 65.6585034,63.2176871 65.6585034,63.9965986 C65.6585034,64.6122449 65.3809524,65.1251701 64.8278912,65.5353741 C64.2734694,65.944898 63.5462585,66.1503401 62.6435374,66.1503401 C61.5360544,66.1503401 60.644898,65.8938776 59.9673469,65.3816327 C59.2904762,64.8687075 58.7265306,64.222449 58.2755102,63.4428571 L54.6455782,65.5353741 Z" id="Path" fill="#FFFFFF"></path>
        </g>
    </g>
</svg>