<?xml version="1.0" encoding="UTF-8"?>
<svg width="100px" height="100px" viewBox="0 0 100 100" version="1.1" xmlns="http://www.w3.org/2000/svg" xmlns:xlink="http://www.w3.org/1999/xlink">
    <!-- Generator: Sketch 52.5 (67469) - http://www.bohemiancoding.com/sketch -->
    <title>Group 14</title>
    <desc>Created with Sketch.</desc>
    <g id="Welcome" stroke="none" stroke-width="1" fill="none" fill-rule="evenodd">
        <g id="Group-14" fill="#0EE09A">
            <path d="M100,50 C100,77.6141667 77.6141667,100 50,100 C22.3858333,100 0,77.6141667 0,50 C0,22.3858333 22.3858333,0 50,0 C77.6141667,0 100,22.3858333 100,50" id="Fill-1" opacity="0.118257068"></path>
            <path d="M84.9015232,43.2567436 C84.4378171,40.9934979 83.7463982,38.7674901 82.8458975,36.6407839 C81.9619577,34.5520052 80.8682461,32.5383923 79.5951244,30.6544229 C78.3337334,28.7890726 76.8853418,27.0347468 75.289972,25.4404066 C73.6946021,23.8460665 71.9391433,22.3979202 70.0725881,21.138033 C68.187402,19.865733 66.1717985,18.7720377 64.0823608,17.8886685 C61.9535909,16.9894386 59.7268355,16.298466 57.462128,15.8350591 C55.1394572,15.3599292 52.7484725,15.1192611 50.3567978,15.1192611 C49.7095414,15.1192611 49.1851119,15.6440417 49.1851119,16.2908804 C49.1851119,16.9370295 49.7095414,17.4618101 50.3567978,17.4618101 C52.5911437,17.4618101 54.8234194,17.6866176 56.9922115,18.1300262 C59.1051105,18.5617117 61.1835076,19.2071712 63.1694394,20.0464065 C65.1194892,20.8704707 67.0012252,21.891069 68.7601342,23.0792386 C70.5038624,24.2556851 72.1427047,25.6072883 73.6324986,27.0961206 C75.1222925,28.5856425 76.4747687,30.223427 77.652665,31.9653401 C78.841602,33.7244931 79.8621695,35.6036353 80.6874559,37.553116 C81.5272332,39.537766 82.1724196,41.6148216 82.6050739,43.7263568 C83.0487689,45.8937491 83.2737216,48.124584 83.2737216,50.3567981 C83.2737216,52.5897017 83.0487689,54.8205366 82.6050739,56.9879289 C82.1724196,59.0994641 81.5272332,61.1765197 80.6874559,63.1611697 C79.8621695,65.1099609 78.841602,66.9897927 77.652665,68.748256 C76.4747687,70.4908587 75.1222925,72.1286432 73.6324986,73.6174755 C72.1427047,75.1069975 70.5038624,76.4579111 68.7601342,77.6350471 C67.0012252,78.8232167 65.1194892,79.843815 63.1694394,80.6678792 C61.1835076,81.5071145 59.1044205,82.1518844 56.9922115,82.5842595 C52.6553173,83.4710767 48.0589684,83.4710767 43.7220742,82.5842595 C41.6098652,82.1518844 39.5307782,81.5071145 37.5448463,80.6678792 C35.5947965,79.843815 33.7130605,78.8232167 31.9541515,77.6350471 C30.2104233,76.4579111 28.571581,75.1069975 27.0817871,73.6174755 C25.5919932,72.1286432 24.239517,70.4908587 23.0616207,68.748256 C21.8726837,66.9897927 20.8521163,65.1099609 20.0268298,63.1611697 C19.1870525,61.1765197 18.5418662,59.0994641 18.1092118,56.9879289 C17.6655168,54.8205366 17.4405641,52.5897017 17.4405641,50.3567981 C17.4405641,48.124584 17.6655168,45.8937491 18.1092118,43.7263568 C18.5418662,41.6148216 19.1870525,39.537766 20.0268298,37.553116 C20.8521163,35.6036353 21.8726837,33.7244931 23.0616207,31.9653401 C24.239517,30.223427 25.5919932,28.5856425 27.0817871,27.0961206 C27.4833897,26.6947772 27.8981031,26.3030881 28.3217869,25.9210533 L27.7635455,29.6724418 L30.4733281,27.663656 L31.2979245,22.1089806 L25.7389715,21.2849164 L23.0291889,23.2937022 L27.0769568,23.8922693 C26.5090548,24.391535 25.9563337,24.9087301 25.4243137,25.4404066 C23.8289439,27.0347468 22.3805523,28.7890726 21.1191613,30.6544229 C19.8460396,32.5383923 18.752328,34.5520052 17.8676982,36.6407839 C16.9678875,38.7674901 16.2764686,40.9934979 15.8127625,43.2567436 C15.3373257,45.5779153 15.0965021,47.9673567 15.0965021,50.3567981 C15.0965021,52.746929 15.3373257,55.1363704 15.8127625,57.4575421 C16.2764686,59.7207878 16.9678875,61.9467956 17.8676982,64.0735019 C18.752328,66.1615909 19.8460396,68.1758934 21.1191613,70.0598628 C22.3805523,71.9252132 23.8289439,73.679539 25.4243137,75.2738791 C27.0196836,76.8682192 28.7751425,78.3156759 30.6416976,79.5762528 C32.5268837,80.8485527 34.5424872,81.942248 36.6319249,82.8249276 C38.7606948,83.7248471 40.9874502,84.4158198 43.2521577,84.8792266 C45.5755186,85.3536669 47.9658132,85.5950246 50.3567978,85.5950246 C52.7484725,85.5950246 55.1387671,85.3536669 57.462128,84.8792266 C59.7268355,84.4158198 61.9535909,83.7248471 64.0823608,82.8249276 C66.1717985,81.942248 68.187402,80.8485527 70.0725881,79.5762528 C71.9391433,78.3156759 73.6946021,76.8682192 75.289972,75.2738791 C76.8853418,73.679539 78.3337334,71.9252132 79.5951244,70.0598628 C80.8682461,68.1758934 81.9619577,66.1615909 82.8458975,64.0735019 C83.7463982,61.9467956 84.4378171,59.7207878 84.9015232,57.4575421 C85.37627,55.1363704 85.6177836,52.746929 85.6177836,50.3567981 C85.6177836,47.9673567 85.37627,45.5779153 84.9015232,43.2567436" id="Fill-37"></path>
            <path d="M50.022379,28 C46.9786184,28 44.121407,28.5744296 41.4506589,29.7233002 C38.7799109,30.8721708 36.4523653,32.4462431 34.4679534,34.4455744 C32.4835438,36.4449113 30.9094664,38.7799166 29.7456764,41.4506647 C28.5818864,44.1214127 28,46.9637048 28,49.977621 C28,53.0213816 28.5818864,55.878593 29.7456764,58.5493411 C30.9094664,61.2200891 32.4835438,63.5476347 34.4679534,65.5320466 C36.4523653,67.5164562 38.7799109,69.0905336 41.4506589,70.2543236 C44.121407,71.4181136 46.9786184,72 50.022379,72 C53.0661397,72 55.9233511,71.4181136 58.5940991,70.2543236 C61.2648472,69.0905336 63.5923928,67.5164562 65.5768047,65.5320466 C67.5612165,63.5476347 69.1352888,61.2200891 70.2990788,58.5493411 C71.4628745,55.878593 72.0447581,53.0213816 72.0447581,49.977621 C72.0447581,46.9637048 71.4628745,44.1214127 70.2990788,41.4506647 C69.1352888,38.7799166 67.5612165,36.4449113 65.5768047,34.4455744 C63.5923928,32.4462431 61.2648472,30.8721708 58.5940991,29.7233002 C55.9233511,28.5744296 53.0661397,28 50.022379,28 Z M68.7772128,49.977621 C68.7772128,52.1261572 68.4340447,54.1702179 67.7477085,56.1098659 C67.0613723,58.0495197 66.1064819,59.8100954 64.8830088,61.3916617 C64.55476,61.1230904 64.2712751,60.6605675 64.0325482,60.00407 C63.793827,59.3475725 63.8385851,58.6463226 64.1668339,57.9003032 C64.5249213,57.1542896 64.7561828,56.0800329 64.8606298,54.6775161 C64.965071,53.2750049 64.9725307,52.2305927 64.8830088,51.5442565 C64.7934869,50.8579145 64.5473061,49.9104839 64.1444548,48.7019358 C63.7416036,47.493382 63.0627328,46.8741944 62.1078309,46.8443557 C61.1529291,46.8443557 60.324859,46.6429329 59.6235977,46.2400816 C58.9223422,45.8372304 58.2882351,45.0688434 57.7212595,43.9348921 C56.5276308,41.5476347 56.8707932,39.8989542 58.7507638,38.9888105 C60.6307287,38.0786667 60.9738911,36.9671174 59.7802624,35.6541224 C59.4520137,35.2661905 58.6687074,35.4601536 57.4303149,36.2360117 C56.1919224,37.0118755 55.4533741,36.146507 55.2146473,33.6398833 C55.1848085,33.4608338 55.244486,33.2444917 55.393691,32.9908455 C55.542896,32.7371992 55.7368591,32.476099 55.9755803,32.2075334 C57.8257122,32.8341865 59.5340701,33.721934 61.1007114,34.8708046 C62.6673526,36.0196753 64.0250828,37.3699515 65.1739534,38.9216677 C66.3228241,40.4733895 67.2105716,42.1892072 67.8372304,44.0691778 C68.4638892,45.9491485 68.7772128,47.9186066 68.7772128,49.977621 Z M47.4262449,31.4018309 C47.2173567,31.849446 46.8667347,32.1926083 46.3743616,32.4313352 C45.8819884,32.6700621 45.4567639,32.9535471 45.0986764,33.2817958 C44.3228183,33.9979708 43.71855,34.4381147 43.2858601,34.602239 C42.8531701,34.7663634 42.4279455,35.191588 42.0101692,35.8779242 C41.5923985,36.5642662 40.8911544,37.3326531 39.9064082,38.1831137 C38.9216619,39.0335743 38.4292945,39.6975257 38.4292945,40.1749738 C38.4292945,40.682272 38.6829408,41.1597143 39.1902332,41.6073236 C39.6975257,42.0549387 40.13021,42.2190573 40.4883032,42.0996968 C40.8463906,41.9803362 41.3984355,41.9281127 42.1444548,41.9430321 C42.8904742,41.9579514 43.5320409,42.0698523 44.0691778,42.2787405 C44.3377434,42.3682624 44.942006,42.4950826 45.8819942,42.659207 C46.8219766,42.8233314 47.7470283,43.1441147 48.657172,43.6215685 C49.5673158,44.0990223 50.2685599,44.8151915 50.760933,45.7700933 C51.2533061,46.7249951 51.1712439,48.0379729 50.5147522,49.7090554 C50.1268203,50.7534848 49.2763711,51.4547289 47.9633761,51.8128164 C46.6503811,52.1709095 45.7700933,53.2302411 45.3224839,54.9908455 C45.2329563,55.2295723 45.1061361,55.7666978 44.9420117,56.602239 C44.7778873,57.4377803 44.6809058,58.0495083 44.6510671,58.4374344 C44.6212284,58.9745714 44.7032848,59.9891449 44.8972536,61.4811779 C45.0912167,62.9732166 44.9196327,63.7192303 44.3825015,63.7192303 C43.8453703,63.7192303 43.0471389,63.0627385 41.9877901,61.7497492 C40.9284414,60.4367542 40.3987756,59.6161438 40.3987756,59.287895 C40.3987756,58.9596463 40.2719553,58.2807812 40.0183091,57.2512711 C39.7646628,56.2217668 39.6378426,55.1997336 39.6378426,54.1851487 C39.6378426,53.1705637 39.055959,52.4693139 37.8921633,52.0813877 C36.7283733,51.6934558 36.1464898,50.8131679 36.1464898,49.4404898 C36.1464898,48.2170166 36.4448941,47.2546666 37.0417085,46.553411 C37.6385228,45.8521497 37.8324859,45.2031234 37.6236035,44.606309 C37.4147153,44.0393334 36.6836267,43.6887113 35.4303149,43.5544256 C34.177003,43.4201457 33.2071922,43.3231642 32.5208542,43.263481 C33.1176697,41.6819204 33.9084374,40.227203 34.8931837,38.8992886 C35.8779299,37.5713743 37.0193237,36.3852224 38.3173936,35.340793 C39.6154693,34.2963693 41.0328826,33.4384605 42.5696851,32.7670437 C44.1064819,32.0956268 45.7253237,31.6405578 47.4262449,31.4018309 Z M44.1139359,67.7924723 C44.6809115,67.4940646 45.0762974,67.1882011 45.3000992,66.8748735 C45.5239067,66.5615452 45.8894481,66.4048834 46.3967463,66.4048834 C46.9637162,66.3750424 47.5083014,66.2780614 48.0305189,66.1139359 C48.5527308,65.9498115 49.1420797,65.7931525 49.7985772,65.6439475 C50.3953916,65.5245869 51.1712382,65.2485617 52.1261457,64.8158717 C53.0810476,64.3831817 54.0060992,64.1220758 54.9013179,64.0325539 C55.7070204,63.9728708 56.7141342,64.0400136 57.9226823,64.2339767 C59.1312361,64.4279455 59.9443811,64.8979281 60.3621574,65.6439475 C58.8701187,66.6286932 57.2512769,67.389621 55.5055919,67.9267551 C53.7599069,68.4638892 51.9321884,68.7324519 50.022379,68.7324519 C48.9779496,68.7324519 47.9633818,68.6503908 46.9786356,68.486267 C45.9938893,68.3221427 45.038999,68.09088 44.1139359,67.7924723 Z" id="Fill-1"></path>
        </g>
    </g>
</svg>