<?xml version="1.0" encoding="utf-8"?>
<!-- Generator: Adobe Illustrator 26.5.0, SVG Export Plug-In . SVG Version: 6.00 Build 0)  -->
<svg version="1.1" id="Layer_1" xmlns="http://www.w3.org/2000/svg" xmlns:xlink="http://www.w3.org/1999/xlink" x="0px" y="0px"
	 viewBox="0 0 48 48" style="enable-background:new 0 0 48 48;" xml:space="preserve">
<style type="text/css">
	.st0{fill:#7C69EF;}
	.st1{fill:#FFFFFF;enable-background:new    ;}
</style>
<g id="Layer_1_00000080925717069164863580000008493975670469975482_">
	<path class="st0" d="M14,4h20c5.5,0,10,4.5,10,10v20c0,5.5-4.5,10-10,10H14C8.5,44,4,39.5,4,34V14C4,8.5,8.5,4,14,4z"/>
</g>
<g id="OaNlpE_00000066511457762473601940000017959200736345903257_">
	
		<image style="overflow:visible;" width="262" height="280" id="OaNlpE_00000054264503675944592110000001369119952404867769_" xlink:href="323EE54ABB57B7AD.png"  transform="matrix(0.5 0 0 0.5 72.7719 -26)">
	</image>
</g>
<g>
	<path class="st1" d="M17,34h14c0.6,0,1-0.4,1-1v-3c0-2.2-1.8-4-4-4h-8c-2.2,0-4,1.8-4,4v3C16,33.6,16.4,34,17,34z"/>
	<circle class="st1" cx="24" cy="18" r="4"/>
</g>
</svg>
