<?xml version="1.0" encoding="UTF-8"?><svg id="a" xmlns="http://www.w3.org/2000/svg" width="128" height="128" xmlns:xlink="http://www.w3.org/1999/xlink" viewBox="0 0 128 128"><defs><linearGradient id="b" x1="14.75" y1="14.75" x2="117.1806" y2="117.1806" gradientUnits="userSpaceOnUse"><stop offset="0" stop-color="#55baff"/><stop offset=".2502" stop-color="#369fe2"/><stop offset=".5517" stop-color="#1886c5"/><stop offset=".8105" stop-color="#0676b4"/><stop offset=".9947" stop-color="#0071ae"/></linearGradient></defs><rect width="128" height="128" rx="32" ry="32" fill="url(#b)"/><path d="M91.2594,32.0009v.004H36.7225c-2.5601-.0289-4.6913,2.0528-4.7225,4.6129v54.7634c.0301,2.5615,2.161,4.6455,4.7225,4.618h54.537c2.5678,.0323,4.7062-2.0514,4.7406-4.618V36.614c-.0344-2.5655-2.1756-4.6469-4.7406-4.6131Zm-40.2787,54.5312h-9.4928v-30.5404h9.4928v30.5404Zm.7606-40.2178c0,3.0184-2.4836,5.5026-5.502,5.5028h-.0011c-3.0189,0-5.5031-2.4839-5.5031-5.5028s2.4842-5.5031,5.5031-5.5031,5.5026,2.4836,5.5031,5.502v.0011Zm34.7908,40.2178h-9.4831v-14.8508c0-3.5414-.0633-8.1001-4.932-8.1001-4.9392,0-5.695,3.8583-5.695,7.8422v15.1076h-9.4828v-30.5392h9.1035v4.1734h.1276c1.8536-3.1692,5.3128-5.0691,8.9821-4.9329,9.6113,0,11.3836,6.3219,11.3836,14.5465l-.004,16.7533Z" fill="#fff"/></svg>