<?xml version="1.0" encoding="utf-8"?>
<!-- Generator: Adobe Illustrator 26.5.0, SVG Export Plug-In . SVG Version: 6.00 Build 0)  -->
<svg version="1.1" id="Layer_1" xmlns="http://www.w3.org/2000/svg" xmlns:xlink="http://www.w3.org/1999/xlink" x="0px" y="0px"
	 viewBox="0 0 48 48" style="enable-background:new 0 0 48 48;" xml:space="preserve">
<style type="text/css">
	.st0{fill:#7C69EF;}
	.st1{enable-background:new    ;}
	.st2{fill:#FFFFFF;enable-background:new    ;}
</style>
<g id="Layer_1_00000080925717069164863580000008493975670469975482_">
	<path class="st0" d="M14,4h20c5.5,0,10,4.5,10,10v20c0,5.5-4.5,10-10,10H14C8.5,44,4,39.5,4,34V14C4,8.5,8.5,4,14,4z"/>
</g>
<g id="OaNlpE_00000066511457762473601940000017959200736345903257_">
	
		<image style="overflow:visible;" width="262" height="280" id="OaNlpE_00000054264503675944592110000001369119952404867769_" xlink:href="EB28E2CBC800A363.png"  transform="matrix(0.5 0 0 0.5 72.7719 -26)">
	</image>
</g>
<g class="st1">
	<path class="st2" d="M22.6,27.1c-1.5-1.3-2.5-2.8-3.1-3.6l-0.4-0.7c0.2-0.2,1.2-1.3,1.6-1.9c0.5-0.8-0.3-1.4-0.3-1.4
		s-2.3-2.3-2.9-2.8c-0.5-0.5-1.2-0.2-1.2-0.2c-1.1,0.7-2.3,1.4-2.3,4.4c0,2.8,2.2,5.8,4.5,8c2.3,2.5,5.5,5.1,8.6,5.1
		c3.1-0.1,3.7-1.3,4.4-2.3c0,0,0.3-0.6-0.2-1.2s-2.9-3-2.9-3s-0.7-0.8-1.4-0.3c-0.5,0.5-1.6,1.4-1.8,1.6
		C25.3,28.9,23.6,28,22.6,27.1z"/>
	<path class="st2" d="M22.8,19.1L22.8,19.1c-0.4,0.4-0.8,0.4-1.2,0l-3.4-3.4c-0.4-0.4-0.4-0.8,0-1.2l0,0c0.6-0.6,1.7-0.6,2.3,0
		l2.3,2.3C23.4,17.4,23.4,18.4,22.8,19.1z"/>
	<path class="st2" d="M33.6,29.9L33.6,29.9c-0.4,0.4-0.8,0.4-1.2,0L29,26.5c-0.4-0.4-0.4-0.8,0-1.2l0,0c0.6-0.6,1.7-0.6,2.3,0
		l2.3,2.3C34.2,28.2,34.2,29.2,33.6,29.9z"/>
</g>
</svg>
