<svg xmlns="http://www.w3.org/2000/svg" xmlns:xlink="http://www.w3.org/1999/xlink" version="1.1" width="1000" height="1000" viewBox="0 0 1000 1000" xml:space="preserve">
<desc>Created with Fabric.js 3.5.0</desc>
<defs>
</defs>
<rect x="0" y="0" width="100%" height="100%" fill="#ffffff"/>
<g transform="matrix(0 16.7939 -16.7939 0 500 500)" id="554412">
<path style="stroke: none; stroke-width: 1; stroke-dasharray: none; stroke-linecap: butt; stroke-dashoffset: 0; stroke-linejoin: miter; stroke-miterlimit: 4; is-custom-font: none; font-file-url: none; fill: rgb(134,154,184); fill-rule: nonzero; opacity: 1;" vector-effect="non-scaling-stroke" transform=" translate(-16.0321, -39.1961)" d="M 23.05 58.26 a 1 1 0 0 0 -1.41 0 L 17 62.82 V 13.13 a 1 1 0 0 0 -2 0 V 62.79 l -4.53 -4.53 a 1 1 0 0 0 -1.41 0 h 0 a 1 1 0 0 0 0 1.41 L 15.42 66 a 0.9 0.9 0 0 0 1.27 0 l 6.36 -6.37 A 1.08 1.08 0 0 0 23.05 58.26 Z" stroke-linecap="round"/>
</g>
</svg>