<?xml version="1.0" encoding="utf-8"?>
<!-- Generator: Adobe Illustrator 23.0.1, SVG Export Plug-In . SVG Version: 6.00 Build 0)  -->
<svg version="1.1" id="Layer_1" xmlns="http://www.w3.org/2000/svg" xmlns:xlink="http://www.w3.org/1999/xlink" x="0px" y="0px"
	 viewBox="0 0 190 37" style="enable-background:new 0 0 190 37;" xml:space="preserve">
<style type="text/css">
	.st0{fill:#00305C;}
</style>
<title>Diffbot_Logo.svg</title>
<desc>Created with Sketch.</desc>
<path id="Welcome_1_" class="st0" d="M107.9,21.5c0,2.8,0,5.6,0,8.4c-1.3,0-2.6,0-3.9,0c0-6.9,0-13.9,0-20.8c4.3,0,8.5,0,12.8,0
	c0,1.1,0,2.2,0,3.4c-3,0-5.9,0-8.9,0c0,1.9,0,3.7,0,5.6c2.7,0,5.5,0,8.2,0c0,1.2,0,2.3,0,3.4C113.5,21.5,110.7,21.5,107.9,21.5z
	 M133.2,9c-4.3,0-8.5,0-12.8,0c0,6.9,0,13.9,0,20.8c1.3,0,2.6,0,3.9,0c0-2.8,0-5.6,0-8.4c2.8,0,5.5,0,8.2,0c0-1.2,0-2.3,0-3.4
	c-2.8,0-5.5,0-8.2,0c0-1.9,0-3.7,0-5.6c3,0,5.9,0,8.9,0C133.2,11.3,133.2,10.1,133.2,9z M172.9,9c0,1.1,0,2.2,0,3.4
	c1.9,0,3.8,0,5.8,0c0,5.8,0,11.6,0,17.4c1.3,0,2.6,0,3.9,0c0-5.8,0-11.6,0-17.4c2,0,3.9,0,5.8,0c0-0.2,0-0.3,0-0.5c0-1,0-1.9,0-2.9
	C183.2,9,178,9,172.9,9z M54.5,29c0.2-0.1,0.2-0.1,0.3-0.1c2-1.1,4.1-2.1,6.1-3.2c1.2-0.7,1.8-1.8,1.8-3.2c0-2.7,0-5.5,0-8.2
	c0-1.5-0.7-2.6-2-3.2c-1.9-1-3.8-1.9-5.7-2.9c-0.2-0.1-0.5-0.2-0.8-0.3C58.4,14.8,58.5,21.9,54.5,29z M10.5,7.8
	C10.2,7.9,10,8,9.8,8.1C7.8,9,5.9,10,4,11c-1.3,0.7-2,1.8-2,3.3c0,2.7,0,5.4,0,8.1c0,1.5,0.7,2.6,2,3.3c1.7,0.9,3.5,1.8,5.2,2.7
	c0.3,0.2,0.6,0.3,1.1,0.5C6.2,21.8,6.3,14.8,10.5,7.8z M95.3,29.8c1.3,0,2.6,0,3.8,0c0-6.9,0-13.9,0-20.8c-1.3,0-2.5,0-3.8,0
	C95.3,16,95.3,22.9,95.3,29.8z M44.9,34.9c-2.5,1.1-5.2,1.7-7.9,1.7c-1.5,0-3.1,0-4.6,0c0,0,0,0,0,0c-2,0-4,0.1-6,0
	c-8-0.3-15-6.2-16.8-14C7.4,12.7,13.5,3.1,23.4,0.9c1.3-0.3,2.7-0.4,4.1-0.5c3.3-0.1,6.5,0,9.8,0c8,0,14.9,5,17.5,12.5
	C57.6,21.6,53.3,31.2,44.9,34.9z M48.8,25.5c0-4.7,0-9.3,0-14c0-3.7-2.8-6.4-6.4-6.4c-6.7,0-13.4,0-20.1,0c-3.7,0-6.4,2.8-6.4,6.4
	c0,4.7,0,9.3,0,14c0,0.6,0.1,1.2,0.2,1.8c0.8,2.8,3.2,4.7,6.3,4.7c3.3,0,6.7,0,10,0c3.3,0,6.7,0,10,0C46.1,31.9,48.8,29.2,48.8,25.5
	z M151.1,26c-0.2,2-1.7,3.4-3.8,3.7c-0.6,0.1-1.3,0.2-1.9,0.2c-2.7,0-5.4,0-8.1,0c-0.1,0-0.3,0-0.4,0c0-6.9,0-13.8,0-20.8
	c0.1,0,0.2,0,0.4,0c2.8,0,5.6,0,8.4,0c1,0,1.9,0.2,2.8,0.6c1.2,0.6,2,1.5,2.1,2.8c0.1,1.2,0.1,2.4,0.1,3.6c0,1.3-0.7,2.1-1.8,2.7
	c-0.1,0.1-0.2,0.1-0.4,0.2c0.2,0.1,0.4,0.1,0.6,0.2c1.4,0.5,2.2,1.5,2.3,2.9C151.3,23.4,151.3,24.7,151.1,26z M140.7,17.7
	c1.4,0,2.7,0,4.1,0c1.1,0,1.7-0.7,1.8-1.9c0-0.6,0-1.2,0-1.9c0-1.1-0.5-1.7-1.6-1.7c-1.4-0.1-2.7,0-4.1,0c-0.1,0-0.1,0-0.2,0
	C140.7,14.1,140.7,15.9,140.7,17.7z M147.3,22.9c0-1.3-0.7-2-2-2c-1.4,0-2.8,0-4.3,0c-0.1,0-0.2,0-0.3,0c0,1.9,0,3.8,0,5.7
	c0.8,0,1.6,0,2.4,0c0.9,0,1.8,0,2.7-0.1c1-0.1,1.4-0.7,1.5-1.6C147.3,24.2,147.3,23.5,147.3,22.9z M90.8,20.6c0,1.3,0,2.6,0,3.9
	c-0.1,2.7-1.7,4.5-4.4,5c-0.8,0.2-1.7,0.2-2.6,0.3c-2.5,0-4.9,0-7.4,0c-0.1,0-0.2,0-0.3,0c0-6.9,0-13.9,0-20.8c1,0,1.9,0,2.8,0
	c1.8,0,3.7-0.1,5.5,0c1,0,2,0.2,3,0.6c2,0.7,3.1,2.3,3.2,4.4C90.9,16.2,90.8,18.4,90.8,20.6z M86.9,17.2c0-0.8,0-1.6-0.1-2.3
	c-0.1-1.3-0.8-2.2-2.1-2.3c-1.5-0.1-3.1-0.1-4.6-0.2c0,4.7,0,9.4,0,14.1c1.6-0.1,3.2,0,4.7-0.2c1.3-0.2,2-1,2-2.3
	C86.9,21.7,86.9,19.4,86.9,17.2z M170.1,23.9c-0.1,3.1-1.7,5.2-4.8,5.9c-2.3,0.5-4.7,0.5-7-0.2c-2.4-0.8-4-2.8-4-5.4
	c0-3.2,0-6.4,0-9.6c0-2.6,1.6-4.7,4.1-5.4c2.5-0.7,5-0.7,7.5,0c2.5,0.7,4,2.8,4.1,5.3c0.1,1.6,0,3.2,0,4.9c0,0,0,0,0,0
	C170.1,20.9,170.2,22.4,170.1,23.9z M166.2,19.5C166.2,19.5,166.2,19.5,166.2,19.5c0-1.5,0-3.1,0-4.6c0-1.3-0.8-2.1-2-2.5
	c-1.3-0.3-2.5-0.3-3.8,0c-1.3,0.3-2.1,1.2-2.1,2.6c0,3,0,6,0,8.9c0,1.4,0.8,2.3,2.2,2.6c1.2,0.3,2.4,0.3,3.6,0
	c1.2-0.3,1.9-1,2.1-2.2c0.1-0.3,0.1-0.7,0.1-1C166.2,22,166.2,20.8,166.2,19.5z M28.3,27c2.9,1.1,5.8,1.1,8.7,0
	c2.2-0.8,3.7-2.3,4.3-4.6c0.1-0.2,0.1-0.4,0.2-0.7c-5.9,0-11.8,0-17.7,0C24.4,24.3,25.9,26.1,28.3,27z M20.9,13.1
	c-0.2,0.6,0.1,1.2,0.6,1.4c0.6,0.2,1.1-0.1,1.3-0.7c0.3-0.8,0.9-1.2,1.6-1.2c0.8,0,1.3,0.5,1.5,1.2c0.2,0.6,0.8,0.8,1.3,0.6
	c0.5-0.2,0.8-0.7,0.6-1.3c-0.4-1.5-1.9-2.6-3.5-2.6C22.8,10.6,21.3,11.7,20.9,13.1z M37.2,13c-0.1,0.2-0.1,0.5-0.1,0.7
	c0.1,0.5,0.5,0.8,0.9,0.9c0.5,0,0.9-0.2,1.1-0.8c0.3-0.7,0.9-1.2,1.5-1.1c0.7,0,1.2,0.4,1.5,1.1c0.3,0.7,0.8,1,1.4,0.8
	c0.6-0.2,0.8-0.8,0.5-1.5c-0.5-1.5-1.9-2.4-3.5-2.4C39.1,10.6,37.7,11.6,37.2,13z"/>
</svg>
