<?xml version="1.0" encoding="UTF-8"?>
<svg width="462px" height="235px" viewBox="0 0 462 235" version="1.1" xmlns="http://www.w3.org/2000/svg" xmlns:xlink="http://www.w3.org/1999/xlink">
    <!-- Generator: Sketch 52.5 (67469) - http://www.bohemiancoding.com/sketch -->
    <title>PC_logo_white@1x</title>
    <desc>Created with Sketch.</desc>
    <defs>
        <polygon id="path-1" points="0 234.103 461.352 234.103 461.352 0 0 0"></polygon>
    </defs>
    <g id="Welcome" stroke="none" stroke-width="1" fill="none" fill-rule="evenodd">
        <g id="PC_logo_white">
            <path d="M37.7817,105.0624 C36.7807,107.0414 35.2447,108.5944 33.1727,109.7254 C31.0987,110.8564 19.2967,111.4204 16.0467,111.4204 L13.1057,111.4204 L13.1057,85.2444 L25.1177,85.2444 C28.3907,85.2444 31.0697,85.7914 33.1547,86.8864 C35.2387,87.9814 36.7807,89.5064 37.7817,91.4614 C38.7827,93.4164 39.2837,95.6774 39.2837,98.2454 C39.2837,100.8114 38.7827,103.0844 37.7817,105.0624 M41.1377,77.4014 C37.3577,75.3294 32.6887,74.2924 27.1317,74.2924 L0.0007,74.2924 L0.0007,146.6424 L13.1057,146.6424 L13.1057,122.1964 L26.9547,122.1964 C32.5357,122.1964 37.2347,121.1664 41.0497,119.1044 C44.8657,117.0434 47.7507,114.2114 49.7057,110.6084 C51.6597,107.0044 52.6367,102.8834 52.6367,98.2454 C52.6367,93.6514 51.6657,89.5474 49.7227,85.9324 C47.7797,82.3174 44.9187,79.4734 41.1377,77.4014" id="Fill-1" fill="#FFFFFF"></path>
            <path d="M89.8013,91.6024 C86.6683,91.6024 83.9013,92.4564 81.4983,94.1644 C79.0963,95.8724 77.4013,98.2914 76.4113,101.4234 L75.8463,101.4234 L75.8463,92.3794 L63.4473,92.3794 L63.4473,146.6424 L76.2353,146.6424 L76.2353,114.7424 C76.2353,112.4344 76.7593,110.4034 77.8073,108.6484 C78.8553,106.8934 80.2743,105.5224 82.0643,104.5324 C83.8543,103.5434 85.8563,103.0484 88.0703,103.0484 C89.1063,103.0484 90.0353,103.1554 90.8613,103.3664 C91.6843,103.5794 92.4383,103.8504 93.1213,104.1794 L97.0783,93.5814 C96.1353,92.9694 95.0523,92.4864 93.8283,92.1324 C92.6033,91.7804 91.2603,91.6024 89.8013,91.6024" id="Fill-3" fill="#FFFFFF"></path>
            <path d="M137.6157,128.661 C136.6617,131.347 135.2197,133.483 133.2887,135.073 C131.3567,136.663 128.9547,137.458 126.0817,137.458 C123.1367,137.458 120.6937,136.663 118.7517,135.073 C116.8077,133.483 115.3597,131.347 114.4067,128.661 C113.4517,125.975 112.9747,122.985 112.9747,119.688 C112.9747,116.367 113.4517,113.358 114.4067,110.662 C115.3597,107.966 116.8077,105.816 118.7517,104.215 C120.6937,102.613 123.1367,101.812 126.0817,101.812 C128.9547,101.812 131.3567,102.613 133.2887,104.215 C135.2197,105.816 136.6617,107.966 137.6157,110.662 C138.5697,113.358 139.0467,116.367 139.0467,119.688 C139.0467,122.985 138.5697,125.975 137.6157,128.661 M139.7887,95.171 C135.9027,92.839 131.3097,91.674 126.0107,91.674 C120.7117,91.674 116.1197,92.839 112.2327,95.171 C108.3477,97.503 105.3387,100.776 103.2077,104.992 C101.0757,109.208 100.0107,114.118 100.0107,119.723 C100.0107,125.329 101.0757,130.227 103.2077,134.419 C105.3387,138.612 108.3477,141.874 112.2327,144.205 C116.1197,146.536 120.7117,147.702 126.0107,147.702 C131.3097,147.702 135.9027,146.536 139.7887,144.205 C143.6747,141.874 146.6827,138.612 148.8147,134.419 C150.9457,130.227 152.0117,125.329 152.0117,119.723 C152.0117,114.118 150.9457,109.208 148.8147,104.992 C146.6827,100.776 143.6747,97.503 139.7887,95.171" id="Fill-5" fill="#FFFFFF"></path>
            <polygon id="Fill-7" fill="#FFFFFF" points="206.8032 92.3797 193.2732 92.3797 182.1452 112.4107 171.1932 92.3797 157.6272 92.3797 173.7372 119.5107 157.2032 146.6427 170.7692 146.6427 182.1452 127.1067 193.6252 146.6427 207.0852 146.6427 190.4472 119.5107"></polygon>
            <path d="M239.021,133.3592 L238.456,133.3592 L225.95,92.3802 L212.384,92.3802 L232.062,147.7722 L230.79,151.2352 C229.989,153.2132 229.035,154.6372 227.928,155.5092 C226.821,156.3802 225.538,156.8282 224.078,156.8522 C222.617,156.8762 220.957,156.6162 219.096,156.0752 L216.129,166.3192 C216.859,166.6262 217.914,166.9432 219.291,167.2732 C220.668,167.6022 222.299,167.7682 224.184,167.7682 C227.481,167.7682 230.372,167.1902 232.857,166.0372 C235.341,164.8822 237.443,163.2522 239.163,161.1442 C240.881,159.0362 242.248,156.5572 243.26,153.7082 L265.164,92.3802 L251.562,92.3802 L239.021,133.3592 Z" id="Fill-9" fill="#FFFFFF"></path>
            <path d="M433.7622,91.6024 C430.6292,91.6024 427.8632,92.4564 425.4602,94.1644 C423.0582,95.8724 421.3632,98.2914 420.3732,101.4234 L419.8082,101.4234 L419.8082,92.3794 L407.4082,92.3794 L407.4082,146.6424 L420.1972,146.6424 L420.1972,114.7424 C420.1972,112.4344 420.7202,110.4034 421.7692,108.6484 C422.8162,106.8934 424.2362,105.5224 426.0262,104.5324 C427.8152,103.5434 429.8172,103.0484 432.0312,103.0484 C433.0672,103.0484 433.9972,103.1554 434.8222,103.3664 C435.6462,103.5794 436.4002,103.8504 437.0822,104.1794 L441.0392,93.5814 C440.0972,92.9694 439.0142,92.4864 437.7892,92.1324 C436.5652,91.7804 435.2222,91.6024 433.7622,91.6024" id="Fill-11" fill="#FFFFFF"></path>
            <mask id="mask-2" fill="white">
                <use xlink:href="#path-1"></use>
            </mask>
            <g id="Clip-14"></g>
            <polygon id="Fill-13" fill="#FFFFFF" mask="url(#mask-2)" points="448.564 146.642 461.352 146.642 461.352 74.292 448.564 74.292"></polygon>
            <path d="M381.479,123.8212 C381.479,126.5772 380.908,128.8682 379.765,130.6922 C378.623,132.5182 377.168,133.8892 375.403,134.8072 C373.636,135.7262 371.811,136.1852 369.927,136.1852 C366.865,136.1852 364.392,135.1732 362.508,133.1472 C360.624,131.1222 359.682,128.3902 359.682,124.9522 L359.682,92.3802 L346.894,92.3802 L346.894,92.3892 C348.804,98.0152 349.862,104.1192 349.862,110.5032 C349.862,116.8472 348.818,122.9162 346.929,128.5132 C347.095,132.1702 347.848,135.3342 349.19,138.0052 C350.72,141.0552 352.846,143.3752 355.566,144.9642 C358.287,146.5532 361.424,147.3482 364.981,147.3482 C369.055,147.3482 372.488,146.3832 375.279,144.4522 C378.07,142.5212 380.078,140.0362 381.302,136.9982 L381.868,136.9982 L381.868,146.6422 L394.267,146.6422 L394.267,92.3802 L381.479,92.3802 L381.479,123.8212 Z" id="Fill-15" fill="#FFFFFF" mask="url(#mask-2)"></path>
            <path d="M325.9106,140.3368 C328.5486,138.0398 330.6856,135.3858 332.3226,132.3698 C333.9596,129.3568 335.0256,126.1298 335.5196,122.6908 L322.3076,122.6198 C321.9066,124.7388 321.1826,126.6238 320.1356,128.2728 C319.0866,129.9208 317.8036,131.3108 316.2846,132.4408 C314.7646,133.5708 313.0566,134.4248 311.1616,135.0028 C309.2656,135.5788 307.2346,135.8678 305.0676,135.8678 C301.1586,135.8678 297.6896,134.9088 294.6646,132.9888 C291.6376,131.0688 289.2596,128.2198 287.5276,124.4398 C285.7976,120.6588 284.9316,116.0028 284.9316,110.4678 C284.9316,105.0268 285.7916,100.4168 287.5106,96.6378 C289.2286,92.8568 291.6086,89.9828 294.6466,88.0168 C297.6846,86.0518 301.1706,85.0668 305.1026,85.0668 C307.3166,85.0668 309.3836,85.3678 311.3036,85.9678 C313.2226,86.5688 314.9356,87.4578 316.4436,88.6358 C317.9506,89.8138 319.2106,91.2438 320.2236,92.9278 C321.2356,94.6118 321.9306,96.5368 322.3076,98.7038 L335.5196,98.7038 C334.9776,94.6768 333.8296,91.0908 332.0756,87.9458 C330.3206,84.8028 328.0896,82.1418 325.3816,79.9628 C322.6726,77.7838 319.5876,76.1298 316.1256,74.9988 C312.6636,73.8678 308.9186,73.3038 304.8906,73.3038 C298.5796,73.3038 292.9276,74.7758 287.9336,77.7198 C282.9406,80.6628 278.9966,84.9088 276.0996,90.4548 C273.2026,96.0008 271.7546,102.6728 271.7546,110.4678 C271.7546,118.2388 273.1906,124.9048 276.0646,130.4628 C278.9376,136.0218 282.8706,140.2728 287.8636,143.2158 C292.8566,146.1598 298.5326,147.6318 304.8906,147.6318 C309.2016,147.6318 313.1226,146.9888 316.6556,145.7058 C320.1876,144.4228 323.2726,142.6328 325.9106,140.3368" id="Fill-16" fill="#FFFFFF" mask="url(#mask-2)"></path>
            <path d="M370.5278,12.8807 C376.1198,12.8807 380.6518,17.4127 380.6518,23.0047 C380.6518,28.5967 376.1198,33.1287 370.5278,33.1287 C364.9368,33.1287 360.4038,28.5967 360.4038,23.0047 C360.4038,17.4127 364.9368,12.8807 370.5278,12.8807 M332.3798,70.3997 L359.5518,43.2267 C362.8148,45.0007 366.5528,46.0087 370.5278,46.0087 C383.2328,46.0087 393.5328,35.7097 393.5328,23.0047 C393.5328,10.2997 383.2328,0.0007 370.5278,0.0007 C357.8238,0.0007 347.5238,10.2997 347.5238,23.0047 C347.5238,27.0067 348.5478,30.7697 350.3448,34.0477 L321.1478,63.2437 C325.2118,65.0207 328.9878,67.4417 332.3798,70.3997" id="Fill-17" fill="#FFFFFF" mask="url(#mask-2)"></path>
            <path d="M370.5278,221.2225 C364.9368,221.2225 360.4038,216.6905 360.4038,211.0985 C360.4038,205.5075 364.9368,200.9745 370.5278,200.9745 C376.1198,200.9745 380.6518,205.5075 380.6518,211.0985 C380.6518,216.6905 376.1198,221.2225 370.5278,221.2225 M370.5278,188.0945 C366.5398,188.0945 362.7888,189.1105 359.5178,190.8965 L324.6578,156.0355 C320.4218,158.3755 315.8098,159.9795 310.9538,160.7155 L350.3258,200.0895 C348.5398,203.3595 347.5238,207.1105 347.5238,211.0985 C347.5238,223.8035 357.8238,234.1035 370.5278,234.1035 C383.2328,234.1035 393.5328,223.8035 393.5328,211.0985 C393.5328,198.3935 383.2328,188.0945 370.5278,188.0945" id="Fill-18" fill="#FFFFFF" mask="url(#mask-2)"></path>
        </g>
    </g>
</svg>