<?xml version="1.0" encoding="UTF-8"?>
<svg width="321px" height="763px" viewBox="0 0 321 763" version="1.1" xmlns="http://www.w3.org/2000/svg" xmlns:xlink="http://www.w3.org/1999/xlink">
    <!-- Generator: Sketch 52.5 (67469) - http://www.bohemiancoding.com/sketch -->
    <title>Group 35@2x</title>
    <desc>Created with Sketch.</desc>
    <defs>
        <linearGradient x1="-7.36260538%" y1="101.989618%" x2="110.967485%" y2="-10.1775378%" id="linearGradient-1">
            <stop stop-color="#3F4FE2" offset="0%"></stop>
            <stop stop-color="#53A0FD" offset="47.5247532%"></stop>
            <stop stop-color="#0EE09A" offset="100%"></stop>
        </linearGradient>
        <linearGradient x1="-100.815535%" y1="247.919345%" x2="110.967485%" y2="-10.1775378%" id="linearGradient-2">
            <stop stop-color="#3F4FE2" offset="0%"></stop>
            <stop stop-color="#53A0FD" offset="81.382628%"></stop>
            <stop stop-color="#0EE09A" offset="100%"></stop>
        </linearGradient>
        <linearGradient x1="-28.8635976%" y1="86.4325273%" x2="115.999456%" y2="-8.80664065%" id="linearGradient-3">
            <stop stop-color="#3F4FE2" offset="0%"></stop>
            <stop stop-color="#53A0FD" offset="50.5913958%"></stop>
            <stop stop-color="#0EE09A" offset="100%"></stop>
        </linearGradient>
    </defs>
    <g id="Welcome" stroke="none" stroke-width="1" fill="none" fill-rule="evenodd">
        <g id="Group-35">
            <path d="M0,46.555 C0,46.555 58.48,0 160,0 C261.52,0 320,46.555 320,46.555 L320,763 L0,763 L0,46.555 Z" id="Fill-12" fill="url(#linearGradient-1)"></path>
            <path d="M26.3641,232.1892 C26.3641,217.9862 14.8071,206.4312 0.6061,206.4312 C0.5631,206.4312 0.5201,206.4342 0.4771,206.4342 L0.4771,257.9442 C0.5201,257.9442 0.5631,257.9472 0.6061,257.9472 C14.8071,257.9472 26.3641,246.3912 26.3641,232.1892" id="Fill-1" fill="#FFFFFF" opacity="0.077125186"></path>
            <path d="M28.116,180.272 L172.859,35.528 C168.152,27.061 165.461,17.324 165.461,6.968 C165.461,4.629 165.613,2.326 165.88,0.058 C163.934,0.023 161.978,0 160,0 C58.48,0 1.70530257e-13,46.554 1.70530257e-13,46.554 L1.70530257e-13,173.2 C0.043,173.2 0.086,173.197 0.129,173.197 C10.25,173.197 19.783,175.762 28.116,180.272" id="Fill-3" fill="url(#linearGradient-2)"></path>
            <path d="M281.2742,24.4587 C273.8042,48.4747 251.3722,65.9597 224.9302,65.9597 C214.8182,65.9597 205.2942,63.3997 196.9662,58.8967 L52.2122,203.6517 C56.9112,212.1147 59.5962,221.8427 59.5962,232.1887 C59.5962,242.4227 56.9732,252.0557 52.3702,260.4537 L196.6902,404.7747 C205.0832,400.1797 214.7062,397.5627 224.9302,397.5627 C257.4592,397.5627 283.9212,424.0247 283.9212,456.5537 C283.9212,489.0827 257.4592,515.5447 224.9302,515.5447 C192.4012,515.5447 165.9382,489.0827 165.9382,456.5537 C165.9382,446.3077 168.5682,436.6677 173.1802,428.2637 L28.8712,283.9537 C20.4722,288.5567 10.8402,291.1807 0.6062,291.1807 C0.5632,291.1807 0.5202,291.1767 0.4772,291.1767 L0.4772,763.0007 L320.4772,763.0007 L320.4772,46.5547 C320.4772,46.5547 306.8282,35.6907 281.2742,24.4587" id="Fill-5" fill="url(#linearGradient-3)"></path>
            <path d="M250.6883,456.5535 C250.6883,442.3505 239.1323,430.7955 224.9303,430.7955 C210.7273,430.7955 199.1713,442.3505 199.1713,456.5535 C199.1713,470.7565 210.7273,482.3115 224.9303,482.3115 C239.1323,482.3115 250.6883,470.7565 250.6883,456.5535" id="Fill-8" fill="#FFFFFF" opacity="0.077125186"></path>
            <path d="M224.9305,32.7268 C237.0785,32.7268 247.2845,24.2688 249.9835,12.9348 C235.2845,8.4908 218.4395,4.6808 199.5905,2.3698 C199.3215,3.8628 199.1715,5.3978 199.1715,6.9688 C199.1715,21.1708 210.7275,32.7268 224.9305,32.7268" id="Fill-10" fill="#FFFFFF" opacity="0.077125186"></path>
        </g>
    </g>
</svg>