<?xml version="1.0" encoding="UTF-8"?>
<svg width="1440px" height="898px" viewBox="0 0 1440 898" version="1.1" xmlns="http://www.w3.org/2000/svg" xmlns:xlink="http://www.w3.org/1999/xlink">
    <!-- Generator: Sketch 52.5 (67469) - http://www.bohemiancoding.com/sketch -->
    <title>Group 36@2x</title>
    <desc>Created with Sketch.</desc>
    <defs>
        <linearGradient x1="-7.36260538%" y1="101.989618%" x2="110.967485%" y2="-10.1775378%" id="linearGradient-1">
            <stop stop-color="#3F4FE2" offset="0%"></stop>
            <stop stop-color="#53A0FD" offset="47.5247532%"></stop>
            <stop stop-color="#0EE09A" offset="100%"></stop>
        </linearGradient>
        <linearGradient x1="0%" y1="100%" x2="156.328464%" y2="-14.4140449%" id="linearGradient-2">
            <stop stop-color="#3F4FE2" offset="0%"></stop>
            <stop stop-color="#53A0FD" offset="59.800536%"></stop>
            <stop stop-color="#0EE09A" offset="100%"></stop>
        </linearGradient>
    </defs>
    <g id="Welcome" stroke="none" stroke-width="1" fill="none" fill-rule="evenodd">
        <g id="Group-36">
            <path d="M0,116.378742 C0,116.378742 263.161,0 720,0 C1176.839,0 1440,116.378742 1440,116.378742 L1440,897.249278 L0,897.249278 L0,116.378742 Z" id="Fill-1" fill="url(#linearGradient-1)"></path>
            <g id="Group-2" transform="translate(0.000000, -0.000000)">
                <path d="M650.084,843.730614 L358.804,552.124523 C341.853,561.426894 322.411,566.728805 301.752,566.728805 C236.096,566.728805 182.683,513.256192 182.683,447.525914 C182.683,381.794635 236.096,328.323023 301.752,328.323023 C322.183,328.323023 341.426,333.505801 358.244,342.618961 L650.399,50.1378951 C642.246,35.4535246 637.102,18.8790469 635.803,1.24939286 C230.98,14.1477723 1.13686838e-13,116.292646 1.13686838e-13,116.292646 L1.13686838e-13,897.163182 L635.526,897.163182 C636.124,877.851653 641.336,859.688404 650.084,843.730614" id="Fill-1" fill="url(#linearGradient-2)"></path>
                <path d="M249.7612,447.611309 C249.7612,476.310304 273.0862,499.661336 301.7522,499.661336 C330.4192,499.661336 353.7442,476.310304 353.7442,447.611309 C353.7442,418.912315 330.4192,395.561282 301.7522,395.561282 C273.0862,395.561282 249.7612,418.912315 249.7612,447.611309" id="Fill-13" fill="#FFFFFF" opacity="0.077125186"></path>
                <path d="M754.5376,848.931212 C727.1256,848.931212 704.6136,870.28702 702.6936,897.249078 L806.3806,897.249078 C804.4606,870.28702 781.9486,848.931212 754.5376,848.931212" id="Fill-7" fill="#FFFFFF" opacity="0.077125186"></path>
                <path d="M873.0122,4.44976071 C867.0102,64.5948121 816.1702,111.714342 754.5372,111.714342 C734.1272,111.714342 714.9032,106.540574 698.0952,97.4424315 L405.9182,389.946523 C415.4012,407.047588 420.8232,426.703501 420.8232,447.610809 C420.8232,468.291865 415.5282,487.755563 406.2362,504.725482 L697.5372,796.352596 C714.4782,787.068245 733.9012,781.778348 754.5372,781.778348 C818.9472,781.778348 871.5662,833.238717 873.5432,897.249078 L1440.0002,897.249078 L1440.0002,116.377541 C1440.0002,116.377541 1235.0892,25.7615196 873.0122,4.44976071" id="Fill-10" fill="url(#linearGradient-1)"></path>
                <path d="M754.936938,44.5606775 C780.330148,44.5606775 801.476137,25.8708415 805.658,1.38754687 C778.153559,0.485541295 749.845027,0 720.736366,0 C715.124569,0 709.551391,0.0230256696 704,0.0580647321 C707.628309,25.1920848 729.086229,44.5606775 754.936938,44.5606775" id="Fill-4" fill="#FFFFFF" opacity="0.077125186"></path>
            </g>
        </g>
    </g>
</svg>