<?xml version="1.0" encoding="UTF-8"?>
<svg width="1440px" height="800px" viewBox="0 0 1440 800" version="1.1" xmlns="http://www.w3.org/2000/svg" xmlns:xlink="http://www.w3.org/1999/xlink">
    <!-- Generator: Sketch 52.5 (67469) - http://www.bohemiancoding.com/sketch -->
    <title>Group 15@2x</title>
    <desc>Created with Sketch.</desc>
    <defs>
        <linearGradient x1="-7.36260538%" y1="101.989618%" x2="110.967485%" y2="-10.1775378%" id="linearGradient-1">
            <stop stop-color="#3F4FE2" offset="0%"></stop>
            <stop stop-color="#53A0FD" offset="47.5247532%"></stop>
            <stop stop-color="#0EE09A" offset="100%"></stop>
        </linearGradient>
        <linearGradient x1="-7.36260538%" y1="101.989618%" x2="93.2182567%" y2="-17.1850571%" id="linearGradient-2">
            <stop stop-color="#3F4FE2" offset="0%"></stop>
            <stop stop-color="#53A0FD" offset="50.1971464%"></stop>
            <stop stop-color="#0EE09A" offset="100%"></stop>
        </linearGradient>
        <linearGradient x1="-1.28990031%" y1="103.816706%" x2="150.204798%" y2="-45.4009256%" id="linearGradient-3">
            <stop stop-color="#3F4FE2" offset="0%"></stop>
            <stop stop-color="#53A0FD" offset="47.5247532%"></stop>
            <stop stop-color="#0EE09A" offset="100%"></stop>
        </linearGradient>
    </defs>
    <g id="Welcome" stroke="none" stroke-width="1" fill="none" fill-rule="evenodd">
        <g id="01-Landing-page">
            <g id="Group-15">
                <rect id="Rectangle" fill="url(#linearGradient-1)" fill-rule="nonzero" x="0" y="0" width="1440" height="800"></rect>
                <polygon id="Clip-6" points="489.7015 0.0001 1439.9995 0.0001 1439.9995 800 489.7015 800"></polygon>
                <polygon id="Clip-9" points="3.97903932e-13 0 960.8327 0 960.8327 800 3.97903932e-13 800"></polygon>
                <path d="M1440.298,0 L617.853,0 L490,127.852 C499.115,144.271 504.327,163.143 504.327,183.216 C504.327,203.071 499.236,221.759 490.306,238.051 L770.292,518.037 C786.593,509.092 805.295,503.999 825.166,503.999 C844.803,503.999 863.298,508.975 879.464,517.725 L1160.275,236.914 C1151.143,220.485 1145.922,201.596 1145.922,181.504 C1145.922,118.396 1197.261,67.057 1260.368,67.057 C1323.477,67.057 1374.816,118.396 1374.816,181.504 C1374.816,244.612 1323.477,295.951 1260.368,295.951 C1240.751,295.951 1222.273,290.984 1206.118,282.249 L925.286,563.082 C934.402,579.5 939.612,598.372 939.612,618.445 C939.612,638.3 934.523,656.988 925.591,673.281 L1052.312,800 L1440.298,800 L1440.298,0 Z" id="Fill-5" fill="url(#linearGradient-2)"></path>
                <path d="M824.7847,732.943 C761.6767,732.943 710.3377,681.604 710.3377,618.496 C710.3377,598.619 715.4387,579.917 724.3887,563.612 L444.4177,283.641 C428.1247,292.572 409.4377,297.663 389.5817,297.663 C326.4737,297.663 275.1347,246.324 275.1347,183.216 C275.1347,120.108 326.4737,68.769 389.5817,68.769 C409.2187,68.769 427.7147,73.746 443.8797,82.495 L526.3747,0 L-0.000299999999,0 L-0.000299999999,800 L960.8327,800 L879.7087,718.877 C863.3947,727.839 844.6757,732.943 824.7847,732.943" id="Fill-8" fill="url(#linearGradient-3)"></path>
                <path d="M389.5815,133.2428 C362.0285,133.2428 339.6085,155.6628 339.6085,183.2158 C339.6085,210.7688 362.0285,233.1888 389.5815,233.1888 C417.1355,233.1888 439.5545,210.7688 439.5545,183.2158 C439.5545,155.6628 417.1355,133.2428 389.5815,133.2428" id="Fill-1" fill="#FFFFFF" opacity="0.077125186"></path>
                <path d="M774.894,618.4455 C774.894,645.9985 797.314,668.4185 824.868,668.4185 C834.323,668.4185 843.173,665.7775 850.72,661.1955 C865.121,652.4155 874.757,636.5595 874.757,618.4965 C874.757,590.9425 852.337,568.5235 824.785,568.5235 C815.329,568.5235 806.478,571.1645 798.93,575.7465 C784.531,584.5275 774.894,600.3825 774.894,618.4455" id="Fill-3" fill="#FFFFFF" opacity="0.077125186"></path>
                <path d="M1260.0698,231.4767 C1287.6238,231.4767 1310.0428,209.0577 1310.0428,181.5037 C1310.0428,153.9507 1287.6238,131.5307 1260.0698,131.5307 C1232.5168,131.5307 1210.0968,153.9507 1210.0968,181.5037 C1210.0968,209.0577 1232.5168,231.4767 1260.0698,231.4767" id="Fill-11" fill="#FFFFFF" opacity="0.159319196"></path>
            </g>
        </g>
    </g>
</svg>