<svg id="a" xmlns="http://www.w3.org/2000/svg" width="113" height="113"><defs><clipPath id="b"><path d="M92.56 49.12H57.35v14.6h20.26c-1.89 9.27-9.79 14.6-20.26 14.6-12.36 0-22.33-9.96-22.33-22.33s9.96-22.33 22.33-22.33c5.32 0 10.13 1.89 13.91 4.98l10.99-10.99c-6.7-5.84-15.28-9.45-24.9-9.45-20.95 0-37.78 16.83-37.78 37.78S36.4 93.76 57.35 93.76c18.89 0 36.06-13.74 36.06-37.78 0-2.23-.34-4.64-.86-6.87Z" fill="none"/></clipPath><clipPath id="c"><path d="M92.56 49.12H57.35v14.6h20.26c-1.89 9.27-9.79 14.6-20.26 14.6-12.36 0-22.33-9.96-22.33-22.33s9.96-22.33 22.33-22.33c5.32 0 10.13 1.89 13.91 4.98l10.99-10.99c-6.7-5.84-15.28-9.45-24.9-9.45-20.95 0-37.78 16.83-37.78 37.78S36.4 93.76 57.35 93.76c18.89 0 36.06-13.74 36.06-37.78 0-2.23-.34-4.64-.86-6.87Z" fill="none"/></clipPath><clipPath id="d"><path d="M92.56 49.12H57.35v14.6h20.26c-1.89 9.27-9.79 14.6-20.26 14.6-12.36 0-22.33-9.96-22.33-22.33s9.96-22.33 22.33-22.33c5.32 0 10.13 1.89 13.91 4.98l10.99-10.99c-6.7-5.84-15.28-9.45-24.9-9.45-20.95 0-37.78 16.83-37.78 37.78S36.4 93.76 57.35 93.76c18.89 0 36.06-13.74 36.06-37.78 0-2.23-.34-4.64-.86-6.87Z" fill="none"/></clipPath><clipPath id="e"><path d="M92.56 49.12H57.35v14.6h20.26c-1.89 9.27-9.79 14.6-20.26 14.6-12.36 0-22.33-9.96-22.33-22.33s9.96-22.33 22.33-22.33c5.32 0 10.13 1.89 13.91 4.98l10.99-10.99c-6.7-5.84-15.28-9.45-24.9-9.45-20.95 0-37.78 16.83-37.78 37.78S36.4 93.76 57.35 93.76c18.89 0 36.06-13.74 36.06-37.78 0-2.23-.34-4.64-.86-6.87Z" fill="none"/></clipPath></defs><circle cx="56.5" cy="56.5" r="56.5" fill="#e0e0e0"/><circle cx="56.5" cy="55.64" r="55.64" fill="#fff"/><g clip-path="url('#b')"><path d="M16.14 78.31V33.66l29.19 22.33-29.19 22.33Z" fill="#fbbc05"/></g><g clip-path="url('#c')"><path d="m16.14 33.66 29.19 22.33 12.02-10.48 41.22-6.7V14.77H16.14v18.89Z" fill="#ea4335"/></g><g clip-path="url('#d')"><path d="m16.14 78.31 51.52-39.5 13.57 1.72 17.34-25.76V97.2H16.14V78.31Z" fill="#34a853"/></g><g clip-path="url('#e')"><path d="M98.57 97.2 45.33 55.98l-6.87-5.15 60.11-17.17V97.2Z" fill="#4285f4"/></g></svg>