<svg id="Layer_1" data-name="Layer 1" xmlns="http://www.w3.org/2000/svg" viewBox="0 0 128 128"><path d="M105.24 0H22.76C10.19 0 0 10.19 0 22.76v82.48C0 117.81 10.19 128 22.76 128h82.48c12.57 0 22.76-10.19 22.76-22.76V22.76C128 10.19 117.81 0 105.24 0Zm-1.29 52.73-.06-.05c-2.39-2-4.86-3.43-7.5-4.36-2.64-.92-5.46-1.35-8.55-1.35h-.04v-6.72c-6.99 0-40.65.02-40.68 0a10.33 10.33 0 0 0-3.14-1.85c-1.12-.41-2.32-.64-3.59-.64-2.85 0-5.44 1.16-7.31 3.03s-3.03 4.45-3.03 7.31 1.16 5.44 3.03 7.31a10.3 10.3 0 0 0 7.31 3.03c1.23 0 2.41-.22 3.51-.61a10.31 10.31 0 0 0 3.09-1.77c.03-.02 37.54 0 41.06 0 4.27 0 7.98 1.55 11.14 4.63 1.58 1.54 2.77 3.25 3.56 5.1s1.19 3.87 1.19 6.04v15.96c0 2.21-.4 4.25-1.19 6.12-.79 1.88-1.98 3.59-3.56 5.13s-3.3 2.7-5.16 3.48c-1.86.77-3.85 1.16-5.99 1.16H40.4c-4.34 0-8.05-1.54-11.14-4.63s-4.63-6.84-4.63-11.25V75.44l.06.05c2.31 1.93 4.75 3.32 7.35 4.23 2.6.91 5.38 1.33 8.36 1.33h.04v6.72c7.05 0 40.7-.02 40.74 0 .91.77 1.97 1.39 3.12 1.81 1.1.4 2.3.62 3.55.62 2.85 0 5.44-1.16 7.31-3.03 1.87-1.87 3.03-4.45 3.03-7.31s-1.16-5.44-3.03-7.31-4.45-3.03-7.31-3.03c-1.25 0-2.44.22-3.55.62-1.15.42-2.2 1.04-3.12 1.81-.04.03-37.26 0-40.78 0-4.34 0-8.05-1.55-11.14-4.63-1.54-1.54-2.7-3.25-3.48-5.1-.77-1.86-1.16-3.87-1.16-6.04V40.22c0-4.41 1.55-8.17 4.63-11.25 1.54-1.54 3.25-2.7 5.1-3.48 1.86-.77 3.87-1.16 6.04-1.16h47.66c4.27 0 7.98 1.55 11.14 4.63 1.58 1.54 2.77 3.25 3.56 5.13s1.19 3.92 1.19 6.12v12.51ZM45.08 48.1c0 1.29-.53 2.47-1.37 3.32a4.711 4.711 0 0 1-6.64 0 4.711 4.711 0 0 1 0-6.64 4.711 4.711 0 0 1 6.64 0 4.67 4.67 0 0 1 1.37 3.32Zm38.06 31.76c0-1.29.53-2.47 1.37-3.32a4.711 4.711 0 0 1 6.64 0 4.711 4.711 0 0 1 0 6.64 4.711 4.711 0 0 1-6.64 0 4.67 4.67 0 0 1-1.37-3.32Z" style="fill:#00bd94"/></svg>